<svg xmlns="http://www.w3.org/2000/svg" xmlns:xlink="http://www.w3.org/1999/xlink" width="500" zoomAndPan="magnify" viewBox="0 0 375 374.999991" height="500" preserveAspectRatio="xMidYMid meet" version="1.2"><defs><clipPath id="c7c742985f"><path d="M 247 88 L 273.792969 88 L 273.792969 92 L 247 92 Z M 247 88 "/></clipPath><clipPath id="fddf467354"><path d="M 137 3.179688 L 247 3.179688 L 247 117 L 137 117 Z M 137 3.179688 "/></clipPath><clipPath id="e936d45a1f"><path d="M 43.8125 72 L 136 72 L 136 375 L 43.8125 375 Z M 43.8125 72 "/></clipPath></defs><g id="0a0118294d"><rect x="0" width="375" y="0" height="374.999991" style="fill:#ffffff;fill-opacity:1;stroke:none;"/><rect x="0" width="375" y="0" height="374.999991" style="fill:#ffffff;fill-opacity:1;stroke:none;"/><g clip-rule="nonzero" clip-path="url(#c7c742985f)"><path style=" stroke:none;fill-rule:nonzero;fill:#da5726;fill-opacity:1;" d="M 247.917969 88.769531 L 274.0625 91.167969 L 247.917969 90.984375 Z M 247.917969 88.769531 "/></g><path style=" stroke:none;fill-rule:nonzero;fill:#da5726;fill-opacity:1;" d="M 234.539062 87.664062 L 234.539062 91.015625 L 149.378906 90.492188 L 149.441406 79.855469 Z M 234.539062 87.664062 "/><g clip-rule="nonzero" clip-path="url(#fddf467354)"><path style=" stroke:none;fill-rule:nonzero;fill:#da5726;fill-opacity:1;" d="M 139.527344 106.753906 C 139.558594 94.027344 139.710938 51.207031 139.527344 46.503906 C 139.40625 43.429688 141.214844 29.566406 152.171875 18.164062 C 161.625 8.328125 174.878906 3.347656 191.574219 3.347656 C 241.625 3.347656 244.019531 49.300781 244.019531 49.855469 L 244.019531 106.722656 C 245.523438 107.707031 246.535156 109.425781 246.535156 111.363281 C 246.535156 114.4375 244.050781 116.925781 240.980469 116.925781 C 237.914062 116.925781 235.425781 114.4375 235.425781 111.363281 C 235.425781 109.121094 236.746094 107.214844 238.679688 106.324219 L 238.679688 49.945312 C 238.617188 48.257812 236.53125 8.664062 191.542969 8.664062 C 176.351562 8.664062 164.386719 13.089844 155.976562 21.851562 C 147.109375 31.074219 144.714844 43 144.835938 46.289062 C 145.019531 51.085938 144.898438 93.011719 144.867188 106.324219 C 146.769531 107.214844 148.121094 109.121094 148.121094 111.363281 C 148.121094 114.4375 145.636719 116.925781 142.566406 116.925781 C 139.496094 116.925781 137.011719 114.4375 137.011719 111.363281 C 137.011719 109.425781 138.023438 107.738281 139.527344 106.753906 Z M 139.527344 106.753906 "/></g><g clip-rule="nonzero" clip-path="url(#e936d45a1f)"><path style=" stroke:none;fill-rule:nonzero;fill:#da5726;fill-opacity:1;" d="M 67.320312 79.980469 L 70.910156 72.785156 L 72.382812 72.910156 L 102.671875 75.675781 L 135.140625 78.65625 L 135.046875 90.398438 L 93.25 90.152344 C 20.734375 212.25 101.261719 371.570312 103.007812 375.011719 C 18.128906 255.039062 42.308594 121.015625 67.320312 79.980469 Z M 67.320312 79.980469 "/></g><g style="fill:#591f27;fill-opacity:1;"><g transform="translate(68.574516, 217.680227)"><path style="stroke:none" d="M 13.171875 -5.625 L 46.609375 -5.625 L 46.609375 0 L 2.171875 0 L 37.078125 -53.28125 L 3.984375 -53.28125 L 3.984375 -58.90625 L 48.078125 -58.90625 Z M 13.171875 -5.625 "/></g></g><g style="fill:#591f27;fill-opacity:1;"><g transform="translate(118.816085, 217.680227)"><path style="stroke:none" d="M 36.8125 -19.0625 C 36.8125 -22.75 35.539062 -25.984375 33 -28.765625 C 30.40625 -31.535156 27.203125 -32.921875 23.390625 -32.921875 C 19.578125 -32.921875 16.398438 -31.535156 13.859375 -28.765625 C 11.265625 -25.984375 9.96875 -22.75 9.96875 -19.0625 C 9.96875 -15.363281 11.265625 -12.128906 13.859375 -9.359375 C 16.398438 -6.585938 19.578125 -5.203125 23.390625 -5.203125 C 27.203125 -5.203125 30.40625 -6.585938 33 -9.359375 C 35.539062 -12.128906 36.8125 -15.363281 36.8125 -19.0625 Z M 42.875 0 L 36.8125 0 L 36.8125 -6.5 C 36.46875 -6.03125 36.125 -5.597656 35.78125 -5.203125 C 32.132812 -1.160156 27.6875 0.859375 22.4375 0.859375 C 17.175781 0.859375 12.757812 -1.160156 9.1875 -5.203125 C 5.65625 -9.128906 3.890625 -13.75 3.890625 -19.0625 C 3.890625 -24.375 5.65625 -28.992188 9.1875 -32.921875 C 12.757812 -36.960938 17.175781 -38.984375 22.4375 -38.984375 C 27.6875 -38.984375 32.132812 -36.960938 35.78125 -32.921875 C 36.125 -32.515625 36.46875 -32.082031 36.8125 -31.625 L 36.8125 -38.109375 L 42.875 -38.109375 Z M 42.875 0 "/></g></g><g style="fill:#591f27;fill-opacity:1;"><g transform="translate(168.191415, 217.680227)"><path style="stroke:none" d="M 36.8125 -19.0625 C 36.8125 -22.75 35.539062 -25.984375 33 -28.765625 C 30.40625 -31.535156 27.203125 -32.921875 23.390625 -32.921875 C 19.578125 -32.921875 16.398438 -31.535156 13.859375 -28.765625 C 11.265625 -25.984375 9.96875 -22.75 9.96875 -19.0625 C 9.96875 -15.363281 11.265625 -12.128906 13.859375 -9.359375 C 16.398438 -6.585938 19.578125 -5.203125 23.390625 -5.203125 C 27.203125 -5.203125 30.40625 -6.585938 33 -9.359375 C 35.539062 -12.128906 36.8125 -15.363281 36.8125 -19.0625 Z M 42.875 0 L 36.8125 0 L 36.8125 -6.5 C 36.46875 -6.03125 36.125 -5.597656 35.78125 -5.203125 C 32.132812 -1.160156 27.6875 0.859375 22.4375 0.859375 C 17.175781 0.859375 12.757812 -1.160156 9.1875 -5.203125 C 5.65625 -9.128906 3.890625 -13.75 3.890625 -19.0625 C 3.890625 -24.375 5.65625 -28.992188 9.1875 -32.921875 C 12.757812 -36.960938 17.175781 -38.984375 22.4375 -38.984375 C 27.6875 -38.984375 32.132812 -36.960938 35.78125 -32.921875 C 36.125 -32.515625 36.46875 -32.082031 36.8125 -31.625 L 36.8125 -64.96875 L 42.875 -64.96875 Z M 42.875 0 "/></g></g><g style="fill:#591f27;fill-opacity:1;"><g transform="translate(217.566746, 217.680227)"><path style="stroke:none" d="M 12.640625 -51.28125 C 13.390625 -50.53125 13.765625 -49.632812 13.765625 -48.59375 C 13.765625 -47.5 13.390625 -46.578125 12.640625 -45.828125 C 11.890625 -45.078125 11 -44.703125 9.96875 -44.703125 C 8.863281 -44.703125 7.9375 -45.078125 7.1875 -45.828125 C 6.4375 -46.578125 6.0625 -47.5 6.0625 -48.59375 C 6.0625 -49.632812 6.4375 -50.53125 7.1875 -51.28125 C 7.9375 -52.03125 8.863281 -52.40625 9.96875 -52.40625 C 11 -52.40625 11.890625 -52.03125 12.640625 -51.28125 Z M 13 0 L 6.9375 0 L 6.9375 -38.109375 L 13 -38.109375 Z M 13 0 "/></g></g><g style="fill:#591f27;fill-opacity:1;"><g transform="translate(237.403503, 217.680227)"><path style="stroke:none" d="M 26.9375 -59.34375 L 21.75 -59.34375 C 19.726562 -59.34375 18.398438 -58.878906 17.765625 -57.953125 C 17.128906 -57.023438 16.8125 -55.898438 16.8125 -54.578125 L 16.8125 -38.109375 L 26.9375 -38.109375 L 26.9375 -32.484375 L 16.8125 -32.484375 L 16.8125 0 L 10.734375 0 L 10.734375 -32.484375 L 3.03125 -32.484375 L 3.03125 -38.109375 L 10.734375 -38.109375 L 10.734375 -52.84375 C 10.734375 -56.707031 11.660156 -59.707031 13.515625 -61.84375 C 15.304688 -63.925781 18.335938 -64.96875 22.609375 -64.96875 L 26.9375 -64.96875 Z M 26.9375 -59.34375 "/></g></g><g style="fill:#591f27;fill-opacity:1;"><g transform="translate(266.942077, 217.680227)"><path style="stroke:none" d="M 11.34375 21.65625 L 3.984375 21.65625 L 16.8125 -6.234375 L 0.859375 -38.109375 L 7.796875 -38.109375 L 20.015625 -12.5625 L 30.921875 -38.109375 L 37.6875 -38.109375 Z M 11.34375 21.65625 "/></g></g><g style="fill:#da5726;fill-opacity:1;"><g transform="translate(80.065207, 270.132134)"><path style="stroke:none" d="M 12.734375 -6.453125 C 12.734375 -7.910156 12.21875 -9.15625 11.1875 -10.1875 C 10.15625 -11.21875 8.90625 -11.734375 7.4375 -11.734375 C 5.988281 -11.734375 4.75 -11.21875 3.71875 -10.1875 C 2.6875 -9.15625 2.171875 -7.910156 2.171875 -6.453125 C 2.171875 -4.992188 2.6875 -3.75 3.71875 -2.71875 C 4.75 -1.6875 5.988281 -1.171875 7.4375 -1.171875 C 8.90625 -1.171875 10.15625 -1.6875 11.1875 -2.71875 C 12.21875 -3.75 12.734375 -4.992188 12.734375 -6.453125 Z M 14.046875 -6.453125 C 14.046875 -5.546875 13.878906 -4.691406 13.546875 -3.890625 C 13.191406 -3.085938 12.71875 -2.390625 12.125 -1.796875 C 11.519531 -1.191406 10.816406 -0.71875 10.015625 -0.375 C 9.203125 -0.0195312 8.34375 0.15625 7.4375 0.15625 C 6.53125 0.15625 5.679688 -0.0195312 4.890625 -0.375 C 4.085938 -0.71875 3.390625 -1.191406 2.796875 -1.796875 C 2.191406 -2.390625 1.71875 -3.085938 1.375 -3.890625 C 1.019531 -4.691406 0.84375 -5.546875 0.84375 -6.453125 C 0.84375 -7.367188 1.019531 -8.226562 1.375 -9.03125 C 1.71875 -9.832031 2.191406 -10.53125 2.796875 -11.125 C 3.390625 -11.71875 4.085938 -12.191406 4.890625 -12.546875 C 5.679688 -12.878906 6.53125 -13.046875 7.4375 -13.046875 C 8.34375 -13.046875 9.203125 -12.878906 10.015625 -12.546875 C 10.816406 -12.191406 11.519531 -11.71875 12.125 -11.125 C 12.71875 -10.53125 13.191406 -9.832031 13.546875 -9.03125 C 13.878906 -8.226562 14.046875 -7.367188 14.046875 -6.453125 Z M 14.046875 -6.453125 "/></g></g><g style="fill:#da5726;fill-opacity:1;"><g transform="translate(104.408168, 270.132134)"><path style="stroke:none" d="M 2.734375 -9.46875 L 2.734375 0 L 1.421875 0 L 1.421875 -13.65625 L 8.640625 -3.40625 L 8.640625 -12.84375 L 9.953125 -12.84375 L 9.953125 0.796875 Z M 2.734375 -9.46875 "/></g></g><g style="fill:#da5726;fill-opacity:1;"><g transform="translate(125.221267, 270.132134)"><path style="stroke:none" d="M 2.734375 -1.328125 L 7.328125 -1.328125 L 7.328125 0 L 1.421875 0 L 1.421875 -12.84375 L 2.734375 -12.84375 Z M 2.734375 -1.328125 "/></g></g><g style="fill:#da5726;fill-opacity:1;"><g transform="translate(142.372381, 270.132134)"><path style="stroke:none" d="M 2.734375 0 L 1.421875 0 L 1.421875 -12.84375 L 2.734375 -12.84375 Z M 2.734375 0 "/></g></g><g style="fill:#da5726;fill-opacity:1;"><g transform="translate(155.974758, 270.132134)"><path style="stroke:none" d="M 2.734375 -9.46875 L 2.734375 0 L 1.421875 0 L 1.421875 -13.65625 L 8.640625 -3.40625 L 8.640625 -12.84375 L 9.953125 -12.84375 L 9.953125 0.796875 Z M 2.734375 -9.46875 "/></g></g><g style="fill:#da5726;fill-opacity:1;"><g transform="translate(176.787856, 270.132134)"><path style="stroke:none" d="M 9.046875 0 L 1.421875 0 L 1.421875 -12.84375 L 9.046875 -12.84375 L 9.046875 -11.625 L 2.734375 -11.625 L 2.734375 -7.046875 L 8.859375 -7.046875 L 8.859375 -5.796875 L 2.734375 -5.796875 L 2.734375 -1.234375 L 9.046875 -1.234375 Z M 9.046875 0 "/></g></g><g style="fill:#da5726;fill-opacity:1;"><g transform="translate(196.69489, 270.132134)"><path style="stroke:none" d=""/></g></g><g style="fill:#da5726;fill-opacity:1;"><g transform="translate(211.24108, 270.132134)"><path style="stroke:none" d="M 4.984375 -6.0625 C 2.367188 -6.664062 1.0625 -7.785156 1.0625 -9.421875 C 1.0625 -10.628906 1.484375 -11.535156 2.328125 -12.140625 C 3.171875 -12.734375 4.160156 -13.03125 5.296875 -13.03125 C 7.796875 -13.03125 9.28125 -12.097656 9.75 -10.234375 L 8.3125 -10.234375 C 8.0625 -11.347656 7.054688 -11.90625 5.296875 -11.90625 C 4.054688 -11.90625 3.191406 -11.539062 2.703125 -10.8125 C 2.515625 -10.53125 2.421875 -10.179688 2.421875 -9.765625 C 2.421875 -8.972656 2.847656 -8.363281 3.703125 -7.9375 C 4.109375 -7.71875 4.960938 -7.441406 6.265625 -7.109375 C 7.578125 -6.765625 8.53125 -6.382812 9.125 -5.96875 C 9.945312 -5.382812 10.359375 -4.570312 10.359375 -3.53125 C 10.359375 -2.238281 9.847656 -1.253906 8.828125 -0.578125 C 7.960938 -0.0234375 6.898438 0.25 5.640625 0.25 C 2.796875 0.25 1.148438 -0.832031 0.703125 -3 L 2.265625 -3 C 2.503906 -1.644531 3.628906 -0.96875 5.640625 -0.96875 C 7.078125 -0.96875 8.082031 -1.363281 8.65625 -2.15625 C 8.875 -2.46875 8.984375 -2.894531 8.984375 -3.4375 C 8.984375 -3.96875 8.78125 -4.398438 8.375 -4.734375 C 7.78125 -5.210938 6.648438 -5.65625 4.984375 -6.0625 Z M 4.984375 -6.0625 "/></g></g><g style="fill:#da5726;fill-opacity:1;"><g transform="translate(231.525649, 270.132134)"><path style="stroke:none" d="M 0.375 -11.65625 L 0.375 -12.890625 L 7.9375 -12.890625 L 7.9375 -11.65625 L 4.8125 -11.65625 L 4.8125 -0.03125 L 3.5 -0.03125 L 3.5 -11.65625 Z M 0.375 -11.65625 "/></g></g><g style="fill:#da5726;fill-opacity:1;"><g transform="translate(249.280791, 270.132134)"><path style="stroke:none" d="M 12.734375 -6.453125 C 12.734375 -7.910156 12.21875 -9.15625 11.1875 -10.1875 C 10.15625 -11.21875 8.90625 -11.734375 7.4375 -11.734375 C 5.988281 -11.734375 4.75 -11.21875 3.71875 -10.1875 C 2.6875 -9.15625 2.171875 -7.910156 2.171875 -6.453125 C 2.171875 -4.992188 2.6875 -3.75 3.71875 -2.71875 C 4.75 -1.6875 5.988281 -1.171875 7.4375 -1.171875 C 8.90625 -1.171875 10.15625 -1.6875 11.1875 -2.71875 C 12.21875 -3.75 12.734375 -4.992188 12.734375 -6.453125 Z M 14.046875 -6.453125 C 14.046875 -5.546875 13.878906 -4.691406 13.546875 -3.890625 C 13.191406 -3.085938 12.71875 -2.390625 12.125 -1.796875 C 11.519531 -1.191406 10.816406 -0.71875 10.015625 -0.375 C 9.203125 -0.0195312 8.34375 0.15625 7.4375 0.15625 C 6.53125 0.15625 5.679688 -0.0195312 4.890625 -0.375 C 4.085938 -0.71875 3.390625 -1.191406 2.796875 -1.796875 C 2.191406 -2.390625 1.71875 -3.085938 1.375 -3.890625 C 1.019531 -4.691406 0.84375 -5.546875 0.84375 -6.453125 C 0.84375 -7.367188 1.019531 -8.226562 1.375 -9.03125 C 1.71875 -9.832031 2.191406 -10.53125 2.796875 -11.125 C 3.390625 -11.71875 4.085938 -12.191406 4.890625 -12.546875 C 5.679688 -12.878906 6.53125 -13.046875 7.4375 -13.046875 C 8.34375 -13.046875 9.203125 -12.878906 10.015625 -12.546875 C 10.816406 -12.191406 11.519531 -11.71875 12.125 -11.125 C 12.71875 -10.53125 13.191406 -9.832031 13.546875 -9.03125 C 13.878906 -8.226562 14.046875 -7.367188 14.046875 -6.453125 Z M 14.046875 -6.453125 "/></g></g><g style="fill:#da5726;fill-opacity:1;"><g transform="translate(273.623752, 270.132134)"><path style="stroke:none" d="M 2.734375 -6.34375 L 5.71875 -6.34375 C 6.46875 -6.34375 7.082031 -6.597656 7.5625 -7.109375 C 8.050781 -7.617188 8.296875 -8.253906 8.296875 -9.015625 C 8.296875 -9.753906 8.0625 -10.367188 7.59375 -10.859375 C 7.125 -11.335938 6.5 -11.578125 5.71875 -11.578125 L 2.734375 -11.578125 Z M 9.609375 -8.96875 C 9.609375 -7.851562 9.210938 -6.921875 8.421875 -6.171875 C 7.722656 -5.515625 6.875 -5.15625 5.875 -5.09375 L 9.828125 0 L 8.046875 0 L 4.28125 -5.078125 L 2.734375 -5.078125 L 2.734375 0 L 1.421875 0 L 1.421875 -12.84375 L 5.53125 -12.84375 C 6.675781 -12.84375 7.640625 -12.484375 8.421875 -11.765625 C 9.210938 -11.015625 9.609375 -10.082031 9.609375 -8.96875 Z M 9.609375 -8.96875 "/></g></g><g style="fill:#da5726;fill-opacity:1;"><g transform="translate(293.342042, 270.132134)"><path style="stroke:none" d="M 9.046875 0 L 1.421875 0 L 1.421875 -12.84375 L 9.046875 -12.84375 L 9.046875 -11.625 L 2.734375 -11.625 L 2.734375 -7.046875 L 8.859375 -7.046875 L 8.859375 -5.796875 L 2.734375 -5.796875 L 2.734375 -1.234375 L 9.046875 -1.234375 Z M 9.046875 0 "/></g></g></g></svg>