<svg xmlns="http://www.w3.org/2000/svg" xmlns:xlink="http://www.w3.org/1999/xlink" width="500" zoomAndPan="magnify" viewBox="0 0 375 374.999991" height="500" preserveAspectRatio="xMidYMid meet" version="1.2"><defs><clipPath id="544acbebae"><path d="M 227 109 L 247.75 109 L 247.75 112 L 227 112 Z M 227 109 "/></clipPath><clipPath id="68817e9560"><path d="M 141 43.652344 L 227 43.652344 L 227 132 L 141 132 Z M 141 43.652344 "/></clipPath><clipPath id="8be9e735c6"><path d="M 69.378906 97 L 141 97 L 141 331.652344 L 69.378906 331.652344 Z M 69.378906 97 "/></clipPath></defs><g id="98fcf0e76b"><g clip-rule="nonzero" clip-path="url(#544acbebae)"><path style=" stroke:none;fill-rule:nonzero;fill:#ffffff;fill-opacity:1;" d="M 227.496094 109.84375 L 247.75 111.699219 L 227.496094 111.554688 Z M 227.496094 109.84375 "/></g><path style=" stroke:none;fill-rule:nonzero;fill:#ffffff;fill-opacity:1;" d="M 217.128906 108.988281 L 217.128906 111.578125 L 151.15625 111.175781 L 151.207031 102.949219 Z M 217.128906 108.988281 "/><g clip-rule="nonzero" clip-path="url(#68817e9560)"><path style=" stroke:none;fill-rule:nonzero;fill:#ffffff;fill-opacity:1;" d="M 143.527344 123.75 C 143.550781 113.910156 143.667969 80.792969 143.527344 77.15625 C 143.433594 74.777344 144.835938 64.054688 153.320312 55.238281 C 160.644531 47.628906 170.914062 43.777344 183.847656 43.777344 C 222.621094 43.777344 224.476562 79.320312 224.476562 79.746094 L 224.476562 123.726562 C 225.640625 124.488281 226.425781 125.820312 226.425781 127.316406 C 226.425781 129.695312 224.5 131.621094 222.121094 131.621094 C 219.742188 131.621094 217.820312 129.695312 217.820312 127.316406 C 217.820312 125.582031 218.839844 124.109375 220.339844 123.417969 L 220.339844 79.816406 C 220.289062 78.511719 218.675781 47.890625 183.824219 47.890625 C 172.054688 47.890625 162.785156 51.3125 156.269531 58.089844 C 149.398438 65.222656 147.542969 74.445312 147.640625 76.988281 C 147.78125 80.699219 147.6875 113.125 147.664062 123.417969 C 149.136719 124.109375 150.183594 125.582031 150.183594 127.316406 C 150.183594 129.695312 148.257812 131.621094 145.878906 131.621094 C 143.503906 131.621094 141.578125 129.695312 141.578125 127.316406 C 141.578125 125.820312 142.363281 124.511719 143.527344 123.75 Z M 143.527344 123.75 "/></g><g clip-rule="nonzero" clip-path="url(#8be9e735c6)"><path style=" stroke:none;fill-rule:nonzero;fill:#ffffff;fill-opacity:1;" d="M 87.589844 103.042969 L 90.371094 97.480469 L 91.511719 97.578125 L 114.976562 99.714844 L 140.128906 102.023438 L 140.054688 111.105469 L 107.675781 110.914062 C 51.5 205.339844 113.882812 328.558594 115.238281 331.222656 C 49.480469 238.433594 68.214844 134.78125 87.589844 103.042969 Z M 87.589844 103.042969 "/></g><g style="fill:#ffffff;fill-opacity:1;"><g transform="translate(93.706376, 213.847579)"><path style="stroke:none" d="M 12.890625 -5.515625 L 45.609375 -5.515625 L 45.609375 0 L 2.125 0 L 36.28125 -52.140625 L 3.90625 -52.140625 L 3.90625 -57.65625 L 47.046875 -57.65625 Z M 12.890625 -5.515625 "/></g></g><g style="fill:#ffffff;fill-opacity:1;"><g transform="translate(142.880782, 213.847579)"><path style="stroke:none" d="M 36.03125 -18.65625 C 36.03125 -22.269531 34.785156 -25.429688 32.296875 -28.140625 C 29.753906 -30.859375 26.617188 -32.21875 22.890625 -32.21875 C 19.160156 -32.21875 16.050781 -30.859375 13.5625 -28.140625 C 11.019531 -25.429688 9.75 -22.269531 9.75 -18.65625 C 9.75 -15.03125 11.019531 -11.863281 13.5625 -9.15625 C 16.050781 -6.445312 19.160156 -5.09375 22.890625 -5.09375 C 26.617188 -5.09375 29.753906 -6.445312 32.296875 -9.15625 C 34.785156 -11.863281 36.03125 -15.03125 36.03125 -18.65625 Z M 41.96875 0 L 36.03125 0 L 36.03125 -6.359375 C 35.6875 -5.910156 35.347656 -5.488281 35.015625 -5.09375 C 31.453125 -1.132812 27.097656 0.84375 21.953125 0.84375 C 16.816406 0.84375 12.492188 -1.132812 8.984375 -5.09375 C 5.535156 -8.9375 3.8125 -13.457031 3.8125 -18.65625 C 3.8125 -23.851562 5.535156 -28.375 8.984375 -32.21875 C 12.492188 -36.175781 16.816406 -38.15625 21.953125 -38.15625 C 27.097656 -38.15625 31.453125 -36.175781 35.015625 -32.21875 C 35.347656 -31.820312 35.6875 -31.394531 36.03125 -30.9375 L 36.03125 -37.296875 L 41.96875 -37.296875 Z M 41.96875 0 "/></g></g><g style="fill:#ffffff;fill-opacity:1;"><g transform="translate(191.207349, 213.847579)"><path style="stroke:none" d="M 36.03125 -18.65625 C 36.03125 -22.269531 34.785156 -25.429688 32.296875 -28.140625 C 29.753906 -30.859375 26.617188 -32.21875 22.890625 -32.21875 C 19.160156 -32.21875 16.050781 -30.859375 13.5625 -28.140625 C 11.019531 -25.429688 9.75 -22.269531 9.75 -18.65625 C 9.75 -15.03125 11.019531 -11.863281 13.5625 -9.15625 C 16.050781 -6.445312 19.160156 -5.09375 22.890625 -5.09375 C 26.617188 -5.09375 29.753906 -6.445312 32.296875 -9.15625 C 34.785156 -11.863281 36.03125 -15.03125 36.03125 -18.65625 Z M 41.96875 0 L 36.03125 0 L 36.03125 -6.359375 C 35.6875 -5.910156 35.347656 -5.488281 35.015625 -5.09375 C 31.453125 -1.132812 27.097656 0.84375 21.953125 0.84375 C 16.816406 0.84375 12.492188 -1.132812 8.984375 -5.09375 C 5.535156 -8.9375 3.8125 -13.457031 3.8125 -18.65625 C 3.8125 -23.851562 5.535156 -28.375 8.984375 -32.21875 C 12.492188 -36.175781 16.816406 -38.15625 21.953125 -38.15625 C 27.097656 -38.15625 31.453125 -36.175781 35.015625 -32.21875 C 35.347656 -31.820312 35.6875 -31.394531 36.03125 -30.9375 L 36.03125 -63.578125 L 41.96875 -63.578125 Z M 41.96875 0 "/></g></g><g style="fill:#ffffff;fill-opacity:1;"><g transform="translate(239.533916, 213.847579)"><path style="stroke:none" d="M 12.375 -50.1875 C 13.113281 -49.457031 13.484375 -48.582031 13.484375 -47.5625 C 13.484375 -46.488281 13.113281 -45.582031 12.375 -44.84375 C 11.644531 -44.113281 10.769531 -43.75 9.75 -43.75 C 8.675781 -43.75 7.769531 -44.113281 7.03125 -44.84375 C 6.300781 -45.582031 5.9375 -46.488281 5.9375 -47.5625 C 5.9375 -48.582031 6.300781 -49.457031 7.03125 -50.1875 C 7.769531 -50.925781 8.675781 -51.296875 9.75 -51.296875 C 10.769531 -51.296875 11.644531 -50.925781 12.375 -50.1875 Z M 12.71875 0 L 6.78125 0 L 6.78125 -37.296875 L 12.71875 -37.296875 Z M 12.71875 0 "/></g></g><g style="fill:#ffffff;fill-opacity:1;"><g transform="translate(258.949311, 213.847579)"><path style="stroke:none" d="M 26.359375 -58.078125 L 21.28125 -58.078125 C 19.300781 -58.078125 18 -57.625 17.375 -56.71875 C 16.757812 -55.8125 16.453125 -54.707031 16.453125 -53.40625 L 16.453125 -37.296875 L 26.359375 -37.296875 L 26.359375 -31.796875 L 16.453125 -31.796875 L 16.453125 0 L 10.515625 0 L 10.515625 -31.796875 L 2.96875 -31.796875 L 2.96875 -37.296875 L 10.515625 -37.296875 L 10.515625 -51.71875 C 10.515625 -55.5 11.414062 -58.4375 13.21875 -60.53125 C 14.976562 -62.5625 17.945312 -63.578125 22.125 -63.578125 L 26.359375 -63.578125 Z M 26.359375 -58.078125 "/></g></g><g style="fill:#ffffff;fill-opacity:1;"><g transform="translate(287.860451, 213.847579)"><path style="stroke:none" d="M 11.109375 21.1875 L 3.90625 21.1875 L 16.453125 -6.109375 L 0.84375 -37.296875 L 7.625 -37.296875 L 19.578125 -12.296875 L 30.265625 -37.296875 L 36.875 -37.296875 Z M 11.109375 21.1875 "/></g></g><g style="fill:#ffffff;fill-opacity:1;"><g transform="translate(102.380489, 262.191345)"><path style="stroke:none" d="M 12.609375 -6.390625 C 12.609375 -7.828125 12.097656 -9.054688 11.078125 -10.078125 C 10.046875 -11.097656 8.8125 -11.609375 7.375 -11.609375 C 5.9375 -11.609375 4.707031 -11.097656 3.6875 -10.078125 C 2.664062 -9.054688 2.15625 -7.828125 2.15625 -6.390625 C 2.15625 -4.953125 2.664062 -3.71875 3.6875 -2.6875 C 4.707031 -1.664062 5.9375 -1.15625 7.375 -1.15625 C 8.8125 -1.15625 10.046875 -1.664062 11.078125 -2.6875 C 12.097656 -3.71875 12.609375 -4.953125 12.609375 -6.390625 Z M 13.921875 -6.390625 C 13.921875 -5.492188 13.75 -4.648438 13.40625 -3.859375 C 13.0625 -3.054688 12.59375 -2.363281 12 -1.78125 C 11.40625 -1.175781 10.707031 -0.707031 9.90625 -0.375 C 9.113281 -0.0195312 8.269531 0.15625 7.375 0.15625 C 6.46875 0.15625 5.625 -0.0195312 4.84375 -0.375 C 4.039062 -0.707031 3.347656 -1.175781 2.765625 -1.78125 C 2.171875 -2.363281 1.703125 -3.054688 1.359375 -3.859375 C 1.015625 -4.648438 0.84375 -5.492188 0.84375 -6.390625 C 0.84375 -7.296875 1.015625 -8.144531 1.359375 -8.9375 C 1.703125 -9.738281 2.171875 -10.429688 2.765625 -11.015625 C 3.347656 -11.597656 4.039062 -12.066406 4.84375 -12.421875 C 5.625 -12.753906 6.46875 -12.921875 7.375 -12.921875 C 8.269531 -12.921875 9.113281 -12.753906 9.90625 -12.421875 C 10.707031 -12.066406 11.40625 -11.597656 12 -11.015625 C 12.59375 -10.429688 13.0625 -9.738281 13.40625 -8.9375 C 13.75 -8.144531 13.921875 -7.296875 13.921875 -6.390625 Z M 13.921875 -6.390625 "/></g></g><g style="fill:#ffffff;fill-opacity:1;"><g transform="translate(126.486225, 262.191345)"><path style="stroke:none" d="M 2.71875 -9.375 L 2.71875 0 L 1.40625 0 L 1.40625 -13.515625 L 8.546875 -3.359375 L 8.546875 -12.71875 L 9.859375 -12.71875 L 9.859375 0.78125 Z M 2.71875 -9.375 "/></g></g><g style="fill:#ffffff;fill-opacity:1;"><g transform="translate(147.096498, 262.191345)"><path style="stroke:none" d="M 2.71875 -1.3125 L 7.25 -1.3125 L 7.25 0 L 1.40625 0 L 1.40625 -12.71875 L 2.71875 -12.71875 Z M 2.71875 -1.3125 "/></g></g><g style="fill:#ffffff;fill-opacity:1;"><g transform="translate(164.080472, 262.191345)"><path style="stroke:none" d="M 2.71875 0 L 1.40625 0 L 1.40625 -12.71875 L 2.71875 -12.71875 Z M 2.71875 0 "/></g></g><g style="fill:#ffffff;fill-opacity:1;"><g transform="translate(177.550292, 262.191345)"><path style="stroke:none" d="M 2.71875 -9.375 L 2.71875 0 L 1.40625 0 L 1.40625 -13.515625 L 8.546875 -3.359375 L 8.546875 -12.71875 L 9.859375 -12.71875 L 9.859375 0.78125 Z M 2.71875 -9.375 "/></g></g><g style="fill:#ffffff;fill-opacity:1;"><g transform="translate(198.160565, 262.191345)"><path style="stroke:none" d="M 8.953125 0 L 1.40625 0 L 1.40625 -12.71875 L 8.953125 -12.71875 L 8.953125 -11.5 L 2.71875 -11.5 L 2.71875 -6.96875 L 8.765625 -6.96875 L 8.765625 -5.734375 L 2.71875 -5.734375 L 2.71875 -1.21875 L 8.953125 -1.21875 Z M 8.953125 0 "/></g></g><g style="fill:#ffffff;fill-opacity:1;"><g transform="translate(217.873602, 262.191345)"><path style="stroke:none" d=""/></g></g><g style="fill:#ffffff;fill-opacity:1;"><g transform="translate(232.278038, 262.191345)"><path style="stroke:none" d="M 4.9375 -6 C 2.34375 -6.601562 1.046875 -7.710938 1.046875 -9.328125 C 1.046875 -10.523438 1.460938 -11.425781 2.296875 -12.03125 C 3.128906 -12.613281 4.109375 -12.90625 5.234375 -12.90625 C 7.710938 -12.90625 9.1875 -11.984375 9.65625 -10.140625 L 8.234375 -10.140625 C 7.984375 -11.234375 6.984375 -11.78125 5.234375 -11.78125 C 4.015625 -11.78125 3.160156 -11.421875 2.671875 -10.703125 C 2.484375 -10.421875 2.390625 -10.078125 2.390625 -9.671875 C 2.390625 -8.878906 2.816406 -8.273438 3.671875 -7.859375 C 4.066406 -7.640625 4.910156 -7.363281 6.203125 -7.03125 C 7.503906 -6.695312 8.445312 -6.320312 9.03125 -5.90625 C 9.84375 -5.332031 10.25 -4.53125 10.25 -3.5 C 10.25 -2.21875 9.742188 -1.242188 8.734375 -0.578125 C 7.890625 -0.0234375 6.84375 0.25 5.59375 0.25 C 2.769531 0.25 1.132812 -0.820312 0.6875 -2.96875 L 2.25 -2.96875 C 2.476562 -1.625 3.59375 -0.953125 5.59375 -0.953125 C 7.007812 -0.953125 8 -1.34375 8.5625 -2.125 C 8.789062 -2.4375 8.90625 -2.863281 8.90625 -3.40625 C 8.90625 -3.925781 8.695312 -4.351562 8.28125 -4.6875 C 7.695312 -5.164062 6.582031 -5.601562 4.9375 -6 Z M 4.9375 -6 "/></g></g><g style="fill:#ffffff;fill-opacity:1;"><g transform="translate(252.364931, 262.191345)"><path style="stroke:none" d="M 0.375 -11.546875 L 0.375 -12.75 L 7.859375 -12.75 L 7.859375 -11.546875 L 4.765625 -11.546875 L 4.765625 -0.03125 L 3.453125 -0.03125 L 3.453125 -11.546875 Z M 0.375 -11.546875 "/></g></g><g style="fill:#ffffff;fill-opacity:1;"><g transform="translate(269.947047, 262.191345)"><path style="stroke:none" d="M 12.609375 -6.390625 C 12.609375 -7.828125 12.097656 -9.054688 11.078125 -10.078125 C 10.046875 -11.097656 8.8125 -11.609375 7.375 -11.609375 C 5.9375 -11.609375 4.707031 -11.097656 3.6875 -10.078125 C 2.664062 -9.054688 2.15625 -7.828125 2.15625 -6.390625 C 2.15625 -4.953125 2.664062 -3.71875 3.6875 -2.6875 C 4.707031 -1.664062 5.9375 -1.15625 7.375 -1.15625 C 8.8125 -1.15625 10.046875 -1.664062 11.078125 -2.6875 C 12.097656 -3.71875 12.609375 -4.953125 12.609375 -6.390625 Z M 13.921875 -6.390625 C 13.921875 -5.492188 13.75 -4.648438 13.40625 -3.859375 C 13.0625 -3.054688 12.59375 -2.363281 12 -1.78125 C 11.40625 -1.175781 10.707031 -0.707031 9.90625 -0.375 C 9.113281 -0.0195312 8.269531 0.15625 7.375 0.15625 C 6.46875 0.15625 5.625 -0.0195312 4.84375 -0.375 C 4.039062 -0.707031 3.347656 -1.175781 2.765625 -1.78125 C 2.171875 -2.363281 1.703125 -3.054688 1.359375 -3.859375 C 1.015625 -4.648438 0.84375 -5.492188 0.84375 -6.390625 C 0.84375 -7.296875 1.015625 -8.144531 1.359375 -8.9375 C 1.703125 -9.738281 2.171875 -10.429688 2.765625 -11.015625 C 3.347656 -11.597656 4.039062 -12.066406 4.84375 -12.421875 C 5.625 -12.753906 6.46875 -12.921875 7.375 -12.921875 C 8.269531 -12.921875 9.113281 -12.753906 9.90625 -12.421875 C 10.707031 -12.066406 11.40625 -11.597656 12 -11.015625 C 12.59375 -10.429688 13.0625 -9.738281 13.40625 -8.9375 C 13.75 -8.144531 13.921875 -7.296875 13.921875 -6.390625 Z M 13.921875 -6.390625 "/></g></g><g style="fill:#ffffff;fill-opacity:1;"><g transform="translate(294.052783, 262.191345)"><path style="stroke:none" d="M 2.71875 -6.28125 L 5.671875 -6.28125 C 6.398438 -6.28125 7.003906 -6.53125 7.484375 -7.03125 C 7.960938 -7.539062 8.203125 -8.171875 8.203125 -8.921875 C 8.203125 -9.660156 7.972656 -10.269531 7.515625 -10.75 C 7.054688 -11.226562 6.441406 -11.46875 5.671875 -11.46875 L 2.71875 -11.46875 Z M 9.515625 -8.890625 C 9.515625 -7.773438 9.125 -6.847656 8.34375 -6.109375 C 7.644531 -5.460938 6.800781 -5.109375 5.8125 -5.046875 L 9.71875 0 L 7.96875 0 L 4.25 -5.03125 L 2.71875 -5.03125 L 2.71875 0 L 1.40625 0 L 1.40625 -12.71875 L 5.484375 -12.71875 C 6.617188 -12.71875 7.570312 -12.363281 8.34375 -11.65625 C 9.125 -10.90625 9.515625 -9.984375 9.515625 -8.890625 Z M 9.515625 -8.890625 "/></g></g><g style="fill:#ffffff;fill-opacity:1;"><g transform="translate(313.578916, 262.191345)"><path style="stroke:none" d="M 8.953125 0 L 1.40625 0 L 1.40625 -12.71875 L 8.953125 -12.71875 L 8.953125 -11.5 L 2.71875 -11.5 L 2.71875 -6.96875 L 8.765625 -6.96875 L 8.765625 -5.734375 L 2.71875 -5.734375 L 2.71875 -1.21875 L 8.953125 -1.21875 Z M 8.953125 0 "/></g></g></g></svg>